<svg width="322" height="180" viewBox="0 0 322 180" xmlns="http://www.w3.org/2000/svg" xmlns:xlink="http://www.w3.org/1999/xlink">
    <defs>
        <path id="c214luvpua" d="M0 0h47.678v49.827H0z"/>
        <path id="mxs1cl2o6c" d="M0 0h47.678v49.827H0z"/>
    </defs>
    <g fill="none" fill-rule="evenodd">
        <path d="M20.286 157.372v-7.416l-3.978 6.606h-.702l-3.888-6.714v7.524c0 .504.054.936.144 1.278.09.342.324.684.648.99v.36H9.882v-.36c.324-.306.558-.648.648-.99.09-.342.144-.774.144-1.278v-6.516c0-.504-.054-.954-.144-1.278-.09-.36-.324-.684-.648-1.008v-.342h2.898l3.618 6.21 3.744-6.21h2.808v.342c-.27.18-.522.486-.702.846-.126.342-.198.828-.198 1.44v6.516c0 .612.072 1.098.198 1.44.18.36.432.666.702.828v.36h-3.582v-.36c.288-.162.522-.468.702-.828.144-.342.216-.828.216-1.44zm19.216-7.326-1.62 4.536h3.078l-1.458-4.536zm.99-2.07 3.33 9.666c.13.389.294.743.465 1.044l.129.216c.162.288.432.54.828.738v.36H41.77v-.36c.576-.054.702-.594.378-1.512l-.918-2.7h-3.636l-.9 2.52c-.378 1.08-.288 1.674.252 1.692v.36h-2.79v-.36c.27-.126.54-.378.738-.684.088-.144.19-.334.305-.568l.182-.381.097-.215.208-.474 3.708-9.342h1.098zm19.27 9.396v-8.298h-1.116c-.378 0-.684.09-.918.27l-1.386 1.242h-.36v-2.358h9.324v2.358h-.36l-1.386-1.242c-.216-.18-.54-.27-.9-.27h-1.134v8.298c0 .612.072 1.098.216 1.44.18.36.414.666.702.828v.36h-3.582v-.36c.27-.162.522-.468.702-.828.126-.342.198-.828.198-1.44zm17.902-4.518c-.522-.504-.792-1.188-.792-2.034 0-.81.342-1.512 1.008-2.07.666-.504 1.566-.774 2.646-.774.141 0 .303.008.483.023l.388.04.438.06.238.036.512.088.56.107.297.06v2.034h-.36l-1.746-1.314c-.342-.18-.684-.288-.972-.288-.648 0-1.188.162-1.53.468-.288.288-.45.612-.45.972 0 .63.27 1.098.792 1.386.084.048.184.104.295.157l.312.137.304.14c.054.024.11.048.169.07 1.548.684 2.61 1.368 3.132 1.998.486.594.756 1.386.756 2.34 0 1.17-.414 2.106-1.188 2.772-.792.648-1.926.972-3.402.972-.396 0-.828-.036-1.278-.108-.468-.054-.99-.144-1.548-.27v-2.016h.342l1.8 1.296c.252.18.504.27.792.27 1.71-.072 2.574-.882 2.574-2.394 0-.702-.216-1.296-.648-1.746-.26-.243-.752-.559-1.412-.882l-.226-.108c-.99-.468-1.764-.954-2.286-1.422zm27.676 3.132c0 1.35-.18 2.268-.522 2.808-.666.954-1.944 1.44-3.834 1.44-1.476 0-2.574-.288-3.222-.864-.63-.63-.954-1.584-.954-2.808v-5.706c0-.612-.072-1.098-.216-1.44-.18-.36-.432-.666-.702-.846v-.342h3.582v.342c-.288.18-.522.486-.702.846-.144.342-.216.828-.216 1.44v5.238c0 1.17.216 2.016.612 2.538.45.504 1.188.774 2.178.774 1.134 0 1.962-.432 2.412-1.26.18-.324.288-1.008.288-1.998v-5.292c0-.594-.054-1.062-.162-1.404-.09-.288-.306-.576-.63-.882v-.342h2.88v.342c-.306.306-.54.594-.63.882-.108.342-.162.81-.162 1.404v5.13zM136.878 160v-.36c.27-.162.522-.468.702-.828.144-.342.216-.828.216-1.44v-6.516c0-.612-.072-1.098-.216-1.44-.18-.36-.432-.666-.702-.846v-.342h3.582v.342c-.288.18-.522.486-.702.846-.144.342-.216.828-.216 1.44v6.516c0 .612.072 1.098.216 1.44.18.36.414.666.702.828v.36h-3.582zm16.372-7.146c-.522-.504-.792-1.188-.792-2.034 0-.81.342-1.512 1.008-2.07.666-.504 1.566-.774 2.646-.774.141 0 .303.008.483.023l.388.04.438.06.238.036.512.088.56.107.297.06v2.034h-.36l-1.746-1.314c-.342-.18-.684-.288-.972-.288-.648 0-1.188.162-1.53.468-.288.288-.45.612-.45.972 0 .63.27 1.098.792 1.386.084.048.184.104.295.157l.312.137.304.14c.054.024.11.048.169.07 1.548.684 2.61 1.368 3.132 1.998.486.594.756 1.386.756 2.34 0 1.17-.414 2.106-1.188 2.772-.792.648-1.926.972-3.402.972-.396 0-.828-.036-1.278-.108-.468-.054-.99-.144-1.548-.27v-2.016h.342l1.8 1.296c.252.18.504.27.792.27 1.71-.072 2.574-.882 2.574-2.394 0-.702-.216-1.296-.648-1.746-.26-.243-.752-.559-1.412-.882l-.226-.108c-.99-.468-1.764-.954-2.286-1.422zm22.762 6.444c.342 0 .702-.144.99-.396l1.512-1.278h.36L178.55 160h-7.074v-.36c.27-.162.522-.468.702-.828.144-.342.216-.828.216-1.44v-6.516c0-.612-.072-1.098-.216-1.44-.18-.36-.432-.666-.702-.846v-.342h3.582v.342c-.288.18-.522.486-.702.846-.144.342-.216.828-.216 1.44v8.442h1.872zm18.694-9.252-1.62 4.536h3.078l-1.458-4.536zm.99-2.07 3.33 9.666c.13.389.294.743.465 1.044l.129.216c.162.288.432.54.828.738v.36h-3.474v-.36c.576-.054.702-.594.378-1.512l-.918-2.7h-3.636l-.9 2.52c-.378 1.08-.288 1.674.252 1.692v.36h-2.79v-.36c.27-.126.54-.378.738-.684.088-.144.19-.334.305-.568l.182-.381.097-.215.208-.474 3.708-9.342h1.098zm24.324 9.642.004-.336-6.552-6.714v6.804c0 .504.054.936.144 1.278.09.342.324.684.648.99v.36h-2.628v-.36c.324-.306.558-.648.648-.99.09-.342.144-.774.144-1.278v-6.516c0-.504-.054-.954-.144-1.278-.09-.36-.324-.684-.648-1.008v-.342h2.088l6.3 6.516v-3.888c0-.504-.054-.954-.144-1.278-.09-.36-.324-.684-.648-1.008v-.342h2.628v.342c-.324.324-.558.648-.648 1.008-.09.324-.144.774-.144 1.278v6.516c0 .504.054.936.144 1.278.09.342.324.684.648.99v.36h-2.628v-.36c.324-.306.558-.648.648-.99.075-.285.125-.632.14-1.032zm16.268-8.544v10.08h1.818c1.296 0 2.304-.504 2.97-1.53.54-.864.828-2.088.828-3.636 0-3.276-1.278-4.914-3.798-4.914h-1.818zM233.624 160v-.36c.27-.162.522-.468.702-.828.144-.324.216-.81.216-1.44v-6.516c0-.612-.072-1.098-.216-1.44-.18-.36-.432-.666-.702-.846v-.342h4.518c1.728 0 3.114.414 4.086 1.224 1.116.954 1.674 2.376 1.674 4.23 0 1.98-.486 3.51-1.44 4.554-1.08 1.17-2.736 1.764-4.986 1.764h-3.852zm23.068-7.146c-.522-.504-.792-1.188-.792-2.034 0-.81.342-1.512 1.008-2.07.666-.504 1.566-.774 2.646-.774.141 0 .303.008.483.023l.388.04.438.06.238.036.512.088.56.107.297.06v2.034h-.36l-1.746-1.314c-.342-.18-.684-.288-.972-.288-.648 0-1.188.162-1.53.468-.288.288-.45.612-.45.972 0 .63.27 1.098.792 1.386.084.048.184.104.295.157l.312.137.304.14c.054.024.11.048.169.07 1.548.684 2.61 1.368 3.132 1.998.486.594.756 1.386.756 2.34 0 1.17-.414 2.106-1.188 2.772-.792.648-1.926.972-3.402.972-.396 0-.828-.036-1.278-.108-.468-.054-.99-.144-1.548-.27v-2.016h.342l1.8 1.296c.252.18.504.27.792.27 1.71-.072 2.574-.882 2.574-2.394 0-.702-.216-1.296-.648-1.746-.26-.243-.752-.559-1.412-.882l-.226-.108c-.99-.468-1.764-.954-2.286-1.422z" fill="#4C4C4C" fill-rule="nonzero"/>
        <path d="M55.672 115.874c-.72-.474-1.08-1.185-1.08-2.134 0-.345.055-.711.164-1.1a9.429 9.429 0 0 0 1.603-4.171c.131-.97.197-1.865.197-2.685 0-.819-.022-1.541-.066-2.166a12.599 12.599 0 0 0-1.113-3.67l-.701-1.465c-.361-.747-.738-1.514-1.131-2.304l.458-.905h.687l2.455.97 3.207-2.393 1.44-1.358 6.61-1.714.262-.647.916-.324v-.55L71.74 89l6.283 2.264.393 1.94-1.931 1.197a61.273 61.273 0 0 1-1.866 3.978 14.583 14.583 0 0 0-1.21 3.557h.098v1.682h-.753c-.087.452-.163.927-.229 1.423-.109.776-.425 1.358-.949 1.746 1.713-.399 3.447-.809 5.203-1.229l3.542-.855 1.792-.439.197.227c.182.162.409.256.682.283l.169.008c.61 0 1.178.183 1.701.55l.23.161v1.488l-1.964.647v.517c-4.08.604-7.936 1.407-11.568 2.41a327.582 327.582 0 0 1-11.143 2.862l-.262-.13v1.585l.95.226a56.05 56.05 0 0 1 11.387-2.652 204.203 204.203 0 0 0 11.945-1.875l5.268 2.393.295 1.94-1.963.938a89.385 89.385 0 0 0-3.535 6.889c-1.069 2.328-1.92 4.84-2.552 7.535l-.655.452a38.435 38.435 0 0 0-1.047 4.399 13.96 13.96 0 0 1-1.57 4.398l-.164.259h-.786l-.425-.162-.066.388-1.047-.097v-.259l-.556.259-.262-.323c-.763-.95-2.618-1.776-2.847-3.202-.229-1.426-.13-2.21-.13-3.396v-.517h1.243l2.225.162c.72-2.911 1.462-5.79 2.225-8.635.764-2.89 1.222-5.93 1.375-9.12a2.318 2.318 0 0 0-1.146-.291l-.136.005-.322.027a27.08 27.08 0 0 1-1.963.065c-2.422.862-4.81 1.65-7.167 2.36a61.378 61.378 0 0 1-7.265 1.715 28.225 28.225 0 0 1-.229 3.185c-.13.981-.349 1.903-.654 2.765h2.52l.229-.29 2.748.258a3.59 3.59 0 0 0 .491-1.843c0-.863.066-1.714.197-2.555l-.099-.42h-.556v-1.197l3.894-.227 3.306 1.488v1.876a35.563 35.563 0 0 0-.688 3.945c-.152 1.315-.414 3.749-.785 5.301l-3.338.259-1.342-3.2-1.44-.225c-1.603.323-3.188.67-4.755 1.043l-1.56.38a37.255 37.255 0 0 0-5.924 1.94l-.229.97h-.916l-.85-.162-.884.906-.28-.396-.538-.75-.51-.697-.708-.942-.222-.287a6.695 6.695 0 0 1-1.277-3.105l-.065-.582h1.113v-.097l-.786-5.207 4.647 2.038.786 3.266 3.796-1.164.327-2.361-.59-2.652-.817-.259-.59-2.134.786-1.747zM61.246 109A85.188 85.188 0 0 1 68 107.01l-.798-1.01h-.522c-.962.396-1.893.624-2.794.683-.9.06-1.78.198-2.64.416L61 108.941l.246.059zm.89-6 4.572-1.171L67 100c-.995.495-2.01.886-3.049 1.171a52.15 52.15 0 0 0-2.821.915l-.13.714 1.135.2zm-.128-8c-.154 0-.308.01-.463.03L59 97.047v.824L60.025 99 67 97.26v-1.527l-.76-.214-1.389.672-.388-.254a7.919 7.919 0 0 0-.616-.36l-.536-.256-.212-.107A2.727 2.727 0 0 0 62.01 95zm-6.35.276a66.21 66.21 0 0 0 1.753-5.123c.5-1.691 2.753-9.046 3.233-11.004h.376l.219-.702L62.366 78l.22.16c.401.335.89.548 1.468.638l.253.032c.814.085 1.524.266 2.13.543l.187.127.376 1.245-.063.16c-.313 1.042-2.58 7.498-3.28 8.307-.699.808-1.351 1.649-1.957 2.521L55 97l.658-1.724zM183.989 87l.23.195c.195.174.457.26.784.26.072 0 .152-.005.24-.014l.136-.018c.141-.022.3-.033.473-.033.61 0 1.112.206 1.504.618l.13.098.556 3.999 1.275.097 1.896-.422.294.195.523-.358.229.325.882-.39v-.195l.621 1.593.033-.032v.162l.817 2.179h-.686c-.218.26-.523.423-.915.488l-.434.078-.361.078a5.505 5.505 0 0 0-.153.039c-.676.26-1.384.466-2.125.618a6.08 6.08 0 0 0-1.7.585l-.326 1.69.13.683 3.106-.747.13-.293 1.014-.715 2.059-.228 5.066 2.244-.588 1.69-1.929 1.984a48.188 48.188 0 0 0-.744 4.263l-.106.874a49.195 49.195 0 0 1-.882 5.268l-.294 1.3 3.137-.845.295-.553 2.32-.227 3.269.585 2.222-.195.883.357v1.919l-.523.91-.13-.227v1.17l-12.16 1.106a3.238 3.238 0 0 0-.384 1.37l-.008.255c0 .607-.098 1.204-.294 1.789l.098.097v8.52l-.392 2.048.196 1.398-.589 2.796.23 1.724-1.962.845c-.588-.303-2.326-.493-2.533-.7a1.158 1.158 0 0 1-.343-.763l-.327-.13-2.615-3.967-2.124-1.398h2.255c.74.39 1.384.78 1.928 1.17.327.239.85.185 1.308.228l.915-7.511-.915-7.023h-.294c-2.286.346-3.618.847-5.697 1.502l-.775.253a81.65 81.65 0 0 1-7.616 2.146l-1.046-1.3h-.294l-2.909.487v-1.333a39.415 39.415 0 0 1 6.145-2.633 52.689 52.689 0 0 1 3.17-.878 312.588 312.588 0 0 1 9.12-1.919v-.097l-.295-1.366h-.261c-1.307.52-2.648.921-4.02 1.203-.55.113-1.113.226-1.69.338l-1.772.338-.918.17-.752-.358a6.249 6.249 0 0 0-.417-.97l-.171-.298c-.24-.39-.36-.78-.36-1.17 0-.218.033-.445.098-.684l.458-.91a3.849 3.849 0 0 1-1.373-2.211c-.153-.802-.577-1.463-1.275-1.983l-3.595-2.57v-1.18l.35-.12h.892l3.563.878 1.993-1.398.49 1.95.295.098.392.553 1.013.293 3.073-1.106.13-1.495-.882.195-.621-.293-1.275-1.04h-.719v-1.204l.36-.942h.36a13.284 13.284 0 0 0 2.23-.167l.58-.094v-1.268l-.261-.748a37.785 37.785 0 0 1-3.89-.26c-1.46-.195-2.745-.682-3.857-1.463l-.163-.097-.458-1.366 3.726-.325a5.511 5.511 0 0 0 2.223-.65c.182-.831.31-1.708.386-2.629l.039-.558c.065-1.257.229-2.45.49-3.577l.098-.292 1.34-.358zm-45.754 40a41.428 41.428 0 0 1 4.704 2.12c1.552.818 5.577 4.109 6.907 5.478l.988 1.32.168.221c.328.431.523.945.586 1.541H152v.829l-.412 1.027-.443-.166a2.424 2.424 0 0 0-.665-.099c-.212 0-.402.022-.57.066l-2.028.663v-.596l-2.344-1.26-.063-.165c-.655-1.348-4.125-4.705-5.244-5.677-1.246-1.06-2.217-2.275-2.914-3.645l-.127-.265.19-.431L137 127h1.235zm-15.119 0 3.856 1.776 1.028 2.316-4.32 7.29-.065.032c-.514.529-1.2.793-2.056.793-.664 0-1.307.074-1.928.222l-.61-.19L116 140v-1.11l.129-.127c.642-.761.356-.103.624-1.001.267-.9 3.209-2.388 3.84-6.97-.279-.443-.631-1.02-1.172-1.857a9.496 9.496 0 0 0-.257-1.269l-.118-.35.916-.316h3.154zm41.144-37 1.818 1.656 2.727.65.26 1.298-.195 1.494.195.682-.357 4.546h.584l3.669-.26.78.487v.812l-.066.033.325 2.208-1.6.552h-.348v.12l-3.41 1.179-.421 3.961h-.455a23.138 23.138 0 0 0-1.039 5.553 49.795 49.795 0 0 0-.13 3.474c0 1.083.022 2.068.065 2.955l.455 4.254-.195 1.818.455 7.859h.52v2.597L165.72 139l-.512-.501-.462-.465-.414-.428-.365-.392c-.368-.433-1.786-.64-1.786-1.18 0-.304-.898-.379-.812-.703l.682-6.982-.195-2.987.195-1.429-.195-6.04.39-2.987v-7.89h-.065l-4.805 1.753-.877-1.462-2.5-.974v-1.169l.422-.097a13.591 13.591 0 0 0 4.213-1.61l.397-.241c1.234-.78 2.663-1.169 4.286-1.169.26 0 .53.01.812.033v-.423l-.292-.876h-.487v-.487l-.585-.13v-1.072l.585-2.728a5.41 5.41 0 0 1-.195-1.428c0-.368-.098-.704-.292-1.007l-.195-.26.162-.292c.217-.39.325-.812.325-1.266V90h1.104zm-38.34 0 1.105 1.495h1.852l.293 1.658-.325 1.236.316.03.578.043c.18.01.349.018.505.021l.226.003c.433 0 .77.033 1.007.098.694.173 1.246.596 1.658 1.267l.26.456-.825.472-.39.228-.738.44a50.56 50.56 0 0 0-.68.42 5.144 5.144 0 0 1-2.47.813l-.357 3.673h.845l.715-.228.13.033h1.202c.78.152 1.544.417 2.292.796.747.38 1.554.818 2.421 1.317v.78l-.162.13c-.629.629-1.04 1.322-1.235 2.08-.196.78-.347 1.572-.456 2.374l.585 1.267-1.072.26a20.46 20.46 0 0 1-.512 4.093l-.138.556a19.47 19.47 0 0 0-.65 4.421h1.398c1.43-.13 2.784-.227 4.062-.292a21.38 21.38 0 0 0 3.64-.488l.292-.715h.228v-.033c-.498-1.343-.748-2.481-.748-3.413 0-.39.033-.802.098-1.235l.032-.098a3 3 0 0 1-1.3.293h-1.787l-3.25-2.86 6.923-.326.065.033.13-2.504c-.52.39-1.095.618-1.723.683-.596.054-1.252.086-1.968.095l-.567.003-1.463-.78-.812-1.268v-.716l1.072-.65 1.333.228 3.737-.683.423.26v-1.365l-.195-2.21.032-.196c-.303.022-.65.033-1.04.033s-.823-.033-1.3-.098a5.399 5.399 0 0 1-2.86-1.397l-.13-.13-.325-1.886h.846l3.575.26a71.018 71.018 0 0 0 2.356-.536 7.04 7.04 0 0 0 2.096-.894l.227-.13 4.29 1.885.423 1.43-1.235.26-.26 1.366-1.268.683a29.362 29.362 0 0 0-1.46 6.587l-.067.694a57.614 57.614 0 0 1-1.17 7.64l.292 1.397 6.663.716.195 1.04 1.365.162-.065.91 1.3.26-2.762 1.203-.358-.097-.455.065-3.9.39-2.373-.195-.26.195h-9.035l-3.25.423-.877 3.023h-1.332l-.768-1.282-.077-.132a2.193 2.193 0 0 1-.293-1.122v-.065a161.785 161.785 0 0 0-8.28 2.6l-.566.196h-1.034l.108.323-.937.333a204.531 204.531 0 0 0-9.993 3.895c-.285-.149-.56-.29-.824-.425l-.763-.382-.702-.34a41.959 41.959 0 0 0-.328-.153 5.683 5.683 0 0 0-2.421-.52H102v-1.04l1.43-.65v-.456a468.11 468.11 0 0 0 11.437-3.149l1.855-.54a459.66 459.66 0 0 1 12.773-3.56c.238-1.734.46-3.451.666-5.153.206-1.7.309-3.527.309-5.477l-.942-4.226-.78-.163-.78.488-.878 1.138-1.56-.91a4.597 4.597 0 0 1-1.073-1.691 3.662 3.662 0 0 1-.227-1.203c0-.368.022-.704.065-1.008l.097-.422h.358l.195-7.282-.682-2.6.617-2.276h1.04zm50.658 35c.483.03.975.05 1.477.06l.824.008c.547.115 1.005.194 1.373.235l.176.018c.328.028.594.068.797.12l.114.032c.426.113.841.327 1.246.642l.16.135.255 1.79-.542.862-.17.258-.1.142-.019.022c-.34.45-.756.676-1.246.676h-1.246l-3.961-1.486-.224-.811-2.492-1.858.799-.372c.639-.315 1.374-.473 2.204-.473h.575zm-60.543-30c.952.15 1.774.42 2.466.808l.57.328.973.54.729.393.227 2.102a6.738 6.738 0 0 1-.795 2.166l-.233.394-.501.828-.548.88-1.103.193-.584.905-2.077 1.488a10.46 10.46 0 0 1-1.071 1.551c-.217.28-.325.604-.325.97v.194l.878.669.03.172 1.476 1.02.03.03c.528.567.86 1.176.994 1.827.086.496.205 1.013.357 1.552h.194l1.46-.259.585 2.263-2.142 1.746v.55l.454 4.364h-1.103c-.757-.452-1.287-.83-1.59-1.131a3.56 3.56 0 0 1-.747-1.132 32.355 32.355 0 0 1-.194-3.524c0-1.099-.12-2.123-.357-3.07l-.195-.648h.195l-.682-1.131-.714 5.334h-2.012l-2.142-.485-.162-.937h-.519a25.809 25.809 0 0 0-4.673 2.522 16.306 16.306 0 0 0-3.862 3.653v1.26l-2.304.615-1.363-.84L94 118.891l.195-.226a4.55 4.55 0 0 0 1.038-2.555 39.58 39.58 0 0 0 .13-3.233l-.714-6.692h1.006l2.369 2.587c.278.72.485 1.37.62 1.947l.062.283c.367 1.638.573 3.276.616 4.915l2.304-1.746-.779-2.005.098-.194c.649-1.38.973-3.319.973-5.82a7.464 7.464 0 0 0-.584-1.777l-.303-.647-.616-1.374-.25-.566h.715v-.582h.584l-.065-.064h.422l.097-.324-.194-1.002.94-.097v-.032l.033.032h.065v.097l1.038 1.39 1.526.388a14.8 14.8 0 0 1 .793 1.873l.115.358c.152.431.228.868.228 1.31 0 .441-.044.867-.13 1.276l-.39 3.072.195 1.26-.162 1.844h.194l1.623-.55c.325-.625.487-1.336.487-2.134v-2.813l-.974-1.94h3.635a2.85 2.85 0 0 1 1.817.615c.26.215.541.42.844.614a13.1 13.1 0 0 1 .925-2.247c.378-.722.568-1.525.568-2.408l-.227-.744a8.288 8.288 0 0 0 .519-2.328c.065-.797.097-1.584.097-2.36L114.704 95h1.33zm5.534 13 2.472 1.124 2.437 2.245c.348.664.522 1.423.522 2.278v2.214c-.14.727-.29 1.444-.453 2.15-.209.877-.777 1.508-1.706 1.893l-.278.096-2.054-1.38a33.461 33.461 0 0 1-.453-5.422c0-1.537-.435-2.916-1.304-4.136l-.017-.02.486-.175L120 108h1.569zm62.585 0-2.154.468v.073l.962 2.738-.347.721 1.154-.288v-1.19l1.231-2.306-.846-.216zm4.742-1h-.279l-2.365.882-.452 1.294h-.209v.03c0 .333-.075.642-.226.926-.15.285-.272.574-.365.868a36.215 36.215 0 0 0 3.443-1.03l-.104-.235.661-2.235-.104-.5zm-69.386 0 .821.713-.061.001.57.893.16.265-4.815 2.128-.429-.337-.173-.199-1.296-1.118-.287-1.882 5.51-.464zm70.49-5h-.107l-2.786.866L187 104l2.893-.866L190 102zm1.55-16c1.304.425 2.551.737 3.742.939 1.326.223 2.438.804 3.337 1.743l.371.402-1.45 1.34v.503L195.158 92l-2.663-1.441-.067-.268c-.112-.514-.393-.973-.843-1.375a6.044 6.044 0 0 1-1.348-1.877l-.236-.536 1.55-.503zm27.235 50.999v-1.009l.87-.65.418-5.075-.257-.878.257-1.367-.257-3.61.257-6.376-.064-.195-.74.845h-.387l-3.09 3.774-1.352.943-.225 1.204-.185.063-.314.116c-.14.054-.252.103-.338.146a2.365 2.365 0 0 0-.483.325c-.3.217-.612.347-.934.39v.13h-1.255l-1.706-.78v-1.236l.708-.488.386-1.984a21.507 21.507 0 0 0 2.238-1.562 27.415 27.415 0 0 0 2.011-1.789l1.972-1.968 1.923-1.935.258-.684h.29v-.39h.547l.257-.65h.258l.386-9.044h-.032l-5.215 1.529-.74-.423a6.63 6.63 0 0 1-1.256 2.212 11.234 11.234 0 0 1-1.97 1.904l-1.055.764-.322-2.212.837-5.628v-9.727h1.48v-.26h1.9l3.154 1.269.225 2.765-1.287 4.75 4.313-1.725v-2.082l-.515-1.268.161-.228c.236-.347.354-.824.354-1.432v-1.886l-.483-3.871.709-.716.997.553.58-.195 2.8 1.008.226 2.993-.612 5.27c.3.152 2.126-.358 2.491-.358.097 0 .217-.01.362-.027l.153-.022c.215-.032.419-.049.612-.049.622 0 1.159.098 1.61.293l.289.163v.91l-.998 1.79-3.328 1.822-.58 3.48.194.879-.13 1.398h.323v1.66l-.58 5.074.194.65-.451 3.221.257.553-.257 3.156.257 3.87-.45 3.416.193 1.497-.193 1.334.193 2.31-.386 4.911.257 1.074-2.704 1.366a9.12 9.12 0 0 1-1.009-.852l-.117-.124c-.816-.824-1.449-1.832-1.9-3.025zm21.819-34.836c.261.303.392.671.392 1.105 0 .108-.022.26-.065.454-.05.341-.08.67-.092.987l-.007.378-.392 1.429.327 1.364h-.719a24.803 24.803 0 0 0-.85 3.444 8.009 8.009 0 0 1-1.7 3.703l-4.812 11.249-1.823-1.293.262-.26h-.785v-.292c.224-1.968 3.969-10.936 4.369-12.84l.207-.95c.501-2.209.752-4.493.752-6.854l-.327-1.429-.98 2.079h-.393l-.36.682-1.699 1.69-2.909.292v-1.982a19.526 19.526 0 0 0 1.291-4.11c.273-1.396.496-2.852.67-4.368l-.261-2.014c.436-1.04.697-2.025.784-2.956.087-.996.13-2.047.13-3.151V88h2.322l4.543 1.852v2.111l-1.079 5.23c.218.346.49.574.818.682a2.303 2.303 0 0 0 1.307-.065 374.36 374.36 0 0 1 5.671-1.12 32.537 32.537 0 0 1 5.704-.569l.817-.52 1.47.715h.393l1.079-.487.261.227c.6.558 1.313.945 2.137 1.161l.315.073a12.86 12.86 0 0 1 3.04 1.04l.261.097.327 2.177h-.686v1.04h-.523c-.785 0-1.471.14-2.06.422l-1.667.747c-.445 1.078-.774 2.275-.988 3.593l-.074.5a27.283 27.283 0 0 1-.964 4.385l.196 1.69a147.306 147.306 0 0 0-2.157 12.002c-.567 4.104-2.58 10.018-4.04 13.743l-.098.228-1.014.324-.784.553-.915 1.169-.284-.211-.327-.256-.15-.13a2.555 2.555 0 0 1-.415-.508 3.113 3.113 0 0 1-.491-1.136 11.028 11.028 0 0 1-.196-2.112v-.325l.948-.487c1.525-4.331 3.576-10.895 4.154-15.692.577-4.797.866-9.686.866-14.667l-.948-4.417.13-.26h-1.209l-6.7 1.364zM235 135v-2.424c2.048-3.952 4.15-10.721 5.232-14.477a68.664 68.664 0 0 0 2.243-11.267l-.748-2.26 2.405-1.572 3.868 1.015v1.31a4 4 0 0 1-.877 1.77c-.13.174-.212.316-.244.425-.033.11-.049.213-.049.311s.01.202.032.311l.326 1.048a414.614 414.614 0 0 1-2.86 9.76c-.997 3.254-4.096 9.674-5.136 12.971l-.747.295-1.397 1.605h-.52L235 135zm-6.119-6.737-.881-.667v-1.066l1.695-3.53.373-.2.339-.8h1.05l-.27.266H232v4.131l-1.153.6v.666h-.576L229.29 129l-.409-.737zm52.45-5.274v.975l-1.734 2.013c-1.897 1.365-7.993 5.939-9.913 7.487s-1.603 3.782-3.5 5.536l-4.625-.616-1.559-2.468v-1.364l2.977-1.364.491-1.462.949-.942 1.145-.454.229-.455 1.472-1.397.262-3.962c0-2.512-.262-4.959-.785-7.34a117.06 117.06 0 0 0-1.93-7.569h1.275c.72.347 1.44.563 2.16.65.741.087 1.44.206 2.094.357l4.187-2.111v-.845l-.327-.65h-.523l-3.697 1.982-1.178-1.721h-2.585l-.033.065-.065-.065h-.164l.131-.065-.556-.65 2.258-1.17v-.941l.49-.033a16.499 16.499 0 0 0 4.989-1.29l.491-.22c1.8-.834 3.681-1.434 5.644-1.803l.622-.097v.455l2.225.487.752 1.884-1.996 1.916-.589 1.397-1.21.487-1.047 8.9-1.047 1.071h-1.014v-.065l-3.174 2.956c-.4.966-.66 2-.776 3.098l-.042.475c-.065.931-.185 1.83-.36 2.696l2.094-1.754 6.184-4.482v2.306l-.327.844.72.163.49-.845h.425zm8.248-25.716c-.39.24-.585.59-.585 1.05v2.103l.26 4.696-.163 1.05a5.745 5.745 0 0 1 2.153.658l.287.164a7.296 7.296 0 0 0 2.7.985l.195.033.748 1.018h.39l2.96-1.412.163-1.347h-.195a2.67 2.67 0 0 1-.91-.164 3.497 3.497 0 0 1-1.464-.92l-.098-.065-.228-.624-1.3-.525-.424-1.314 1.334-1.347 1.952-.886h.422l1.172.23 3.936-1.84.813.263 1.886-.624.163.493c.065.153.13.273.195.361l.195.066c.5 0 .955.11 1.367.328l.227.099.358 1.74-.683 1.347-2.31 1.346-1.366 2.168h-.455l-1.301 3.284.78.788-1.008 2.365-5.042 2.003-.39 2.693 4.163-1.937c1.54-.745 3.286-1.117 5.238-1.117h.52v.394l3.903 1.314v1.28c-.238.701-.628 1.216-1.17 1.544-.37.219-.792.57-1.27 1.051a30.862 30.862 0 0 0-1.723 3.514 9.35 9.35 0 0 0-.716 3.317l5.14 1.577v1.642l-1.594 1.872-.657-.052-.583-.04-.51-.025a19.987 19.987 0 0 0-.226-.008l-.399-.007c-1.626 0-3.08.077-4.359.23a50.039 50.039 0 0 0-6.408 1.215l-.325-.131-2.928 6.831-1.04-.854c-.76-.7-1.307-2.567-1.643-3.498-.337-.93-.7-1.888-1.09-2.873.716-2.321 2.158-5.813 2.244-8.375.087-2.562.13-5.134.13-7.718a23.97 23.97 0 0 1-1.56-4.959c-.326-1.62.01-3.087-1.074-4.4l-2.895-1.873a24.47 24.47 0 0 1-1.79-4.45c-.433-1.5-.997-3.18-1.691-5.04h1.106l3.578 1.543.228-.099v-.394l1.04-.788v-1.248h2.018v-.788h1.106l.943.23a53.473 53.473 0 0 1 5.465-1.48l.943-.195A52.352 52.352 0 0 0 304.965 91l1.269.296 1.073-.296L313 93.299v1.61l-1.301 1.608-3.416.296-1.268-.263-3.839.526V95.63l-1.04-.263v-.361a20.618 20.618 0 0 0-4.158 1.81l-.494.292a15.879 15.879 0 0 1-5.075 2.003l-.227.033-1.27-.985-.91-.887h-.423zM286 127.796h-1.158l-.166-.067V129l-2.25-1.338-1.82-3.177-.86-.268-1.058-3.31-1.688-1.138 3.474-.769 2.416.87a25.344 25.344 0 0 1 2.018 3.578 11.833 11.833 0 0 1 1.026 3.746l.066.602zm9 .015 2.166.189 3.892-.85.534-2.426H302v-4.094l-.314-.63h-.596l-4.52 1.04-.597-.158-.188 1.354-.785 5.575zM275 114.2l-.006-.163-.03-.354a8.062 8.062 0 0 1-.036-.816c0-.311.012-.6.036-.867l-2.711 1.433-.253 1.534.434 2.033.072-.067 1.916-1.033a2.667 2.667 0 0 0 .578-1.7zm-13-7.332 3.808-6.234h.416c.384-1.532.874-3.06 1.47-4.584l.306-.762a14.499 14.499 0 0 0 1.104-5.604l-.32-1.034 1.12-1.066.576-2.584h1.472l1.344 2.197 1.632.807.544 2.164-.29.578-.248.514-.206.45-.088.203a19.38 19.38 0 0 0-.672 2.1 9.66 9.66 0 0 1-1.504 3.262l3.264-.259 1.408.355.224.937h.64v1.81h-.896l-.256 1.033h-3.04a15.51 15.51 0 0 1-1.824-1.422c-.363-.301-.725-.452-1.088-.452h-.192l-1.952 3.489-.832.84-2.816 2.293-1.728 1.001L262 109v-2.132zM278.785 97v-2.593l-.777-.482v-.483l-1.457-.934L276 91h3.11l3.141.814L284 95.342h-1.069v.482h-2.17l-.55-.18L278.785 97zM287 86h1.615l.403.097V86h1.211l6.358 2.881c.449.41.819.853 1.11 1.328.202.323.303.69.303 1.1 0 .238-.056.518-.168.842l-1.581 1.813h-2.456L293.257 95l-.437-1.1c-.516-1.317-1.307-2.52-2.372-3.61a26.94 26.94 0 0 1-2.504-2.958L287 86zm-243.663-.09v.565L41.574 87l-.41-.606h-.78v-.727l-.819-.243v-.404h-.451l-.533-2.222.287-.242c.246-.27.369-.539.369-.808v-1.9h.697l.574-2.302 1.189-.283c5.86-3.98 9.27-6.757 10.233-8.33.809-1.324 1.705-8.615 2.689-21.874l-.615-1.657-2.87-.202-6.395 1.495-.246.808c-2.98.97-5.753 2.047-8.323 3.232-2.52 1.141-5.283 1.745-8.289 1.812l-.648.006-3.854-1.13-.123-.122c-1.448-1.4-2.213-3.003-2.295-4.808a26.967 26.967 0 0 0-.738-4.97c.41-1.13.656-2.33.738-3.595.082-1.266.123-2.505.123-3.717 0-2.828-.458-5.542-1.374-8.141a55.868 55.868 0 0 0-3.218-7.414L16 17.727h1.476c1.038.593 2.063 1.199 3.075 1.818.874.539 1.872.822 2.992.849a50.823 50.823 0 0 0 3.69-2.182 10.327 10.327 0 0 1 3.854-1.535v-1.132h.574v-.565h2.009l.164.202c.437.43.977.68 1.619.747a19.48 19.48 0 0 0 2.03.101 29.73 29.73 0 0 0 4.57-1.313c.366-.138.742-.277 1.13-.418l1.192-.425 1.257-.433c.43-.146.87-.293 1.32-.441l5.863 1.293.328 2.222-.656 1.858-9.02 2.142v1.575h.124l2.255-.323 5.411.647v.484h.246v2.99l-.328.162a15.513 15.513 0 0 1-3.733 1.396l-.469.099c-1.407.269-2.672.713-3.792 1.333l-.41 2.626a10.991 10.991 0 0 1 2.726-.566c.776-.064 1.6-.103 2.473-.116l.745-.005 1.722.364v2.666l-8.404 3.232-.451 4.89h.574a50.055 50.055 0 0 1 8.2-1.455c2.46-.231 4.96-.363 7.5-.396l1.519-.008c.656.511 1.264.909 1.824 1.191.56.283 1.127.479 1.701.586 1.367.297 2.638.822 3.813 1.576l.287.162v2.626l-.369 1.212-3.362 1.373c-1.615 4.408-4.082 16.222-5.301 20.964l-.36 1.427c-.857 3.466-5.064 8.096-12.621 13.89l-.092.146-.164.242-1.394.404zM7.88 59h2.04c2.027.41 3.92 1.03 5.68 1.863 1.76.832 3.56 1.726 5.4 2.68.607.765 1.08 1.498 1.422 2.2l.138.298c.293.6.44 1.242.44 1.924 0 .327-.027.669-.08 1.023l-.72 2.047-1.72.369L19.12 73l-.44-.819c-1.2-2.183-2.707-4.066-4.52-5.649L7 60.392h1.32L7.88 59zM22 57h2.374c1.319.24 2.532.591 3.64 1.056 1.108.465 2.15 1.163 3.126 2.093.58.823 1.055 1.647 1.425 2.47.29.612.435 1.276.435 1.993 0 .25-.026.56-.077.934l-.074.479-.047.261-.712.2v1.275h-1.306l-.475-.2-.277.439-2.215-1.554a49.257 49.257 0 0 0-2.513-4.285l-.392-.598-.864-1.336-1.23-1.93L22 57zm9-2h2.735l5.347 2.397c.435.881.864 1.66 1.285 2.334.422.675.633 1.357.633 2.046 0 .33-.054.661-.163.992l-.327 1.322-1.51.248V65h-1.224l-.49-.45-.436-.413a23.63 23.63 0 0 1-.38-.377c-2.041-2.066-3.742-4.683-5.103-7.85L31 55zm9-2h2.842l5.724 2.417.434 2.5-1.145 1.125v.583L45.842 60l-2.526-.667L40 53zM28.518 39.508 28 47l9-3.217-1.075-.804L35.367 39l-5.814.804-1.035-.296zM29.412 36l6.157-2.105L36 31.15l-4.078.49L28 31l.314 4.737-.04.113 1.138.15zm-2.296-9 8.76-2.47.124-.746-.868-2.039-1.074-.51L32.157 19h-2.19l-3.265 1.882-.495 1.726.248 1.098L26 25.43 26.785 27h.33zM67 64.097v-1.936a145.254 145.254 0 0 0 9.17-14.243 74.34 74.34 0 0 0 6.034-13.84 7.175 7.175 0 0 1-2.132 1.17 18.04 18.04 0 0 1-2.293.686v.686h-2.373a21.385 21.385 0 0 0-2.875-1.029c-1.006-.282-1.898-.813-2.675-1.593l-.201-.162v-.847l.281-.202a15.844 15.844 0 0 1 7.292-2.813l.471-.052a14.248 14.248 0 0 0 7.039-2.622l.281-.525 1.448-.726V25h1.368l.12.08c.94.485 2.012.727 3.218.727 1.368 0 2.695.175 3.982.524l.362.081.483 1.614-3.379 2.22c-.786 2.12-1.764 4.026-2.934 5.717l-.324.455a28.306 28.306 0 0 0-3.217 5.65c1.394.376 2.668.9 3.82 1.573 1.53.834 2.964 2.044 4.304 3.631l.805 2.502H90.65l-2.05-1.09.2.686-.241 2.38.241 1.292-.482 3.954.24 1.049-.24 1.654.24 1.897.242 6.705.986 9.949-1.368 5.843-2.132.928-4.263-4.778c-.067 1.197-.067-.382 0-4.737.066-4.356.159-8.831.277-13.426-.16-2.313-.24-4.694-.24-7.142 0-2.098-.282-2.394-.282-4.218-1.717 2.798-3.348 3.754-5.829 6.135a65.882 65.882 0 0 1-7.943 6.516L67 64.097zm58.114-33.774a4.688 4.688 0 0 0-.476 1.87l-.008.295c0 .796-.08 1.558-.242 2.286l.242 1.78-.242 3.763c.161 1.349.35 2.563.565 3.642.215 1.079.323 2.117.323 3.115 0 .567-.027 1.214-.081 1.942l-.08.122c-.646 1.132-.969 2.387-.969 3.762v4.29l.726 4.976h.888l.847-.243c1.741.283 3.555.443 5.44.478l.813.008c2.286 0 4.424.364 6.414 1.092l.363.121.363 1.66-.363 1.092c-.619.458-1.204.802-1.755 1.032-.551.229-1.11.37-1.674.424a68.628 68.628 0 0 0-3.187.405l-3.873-.566-.807.323-4.356-.526c-.242.27-.484.533-.727.79-.242.255-.564.384-.968.384-.269 0-.605-.081-1.008-.243l-.08-.122c-.593-.566-1.278-.85-2.058-.85h-2.986L105.67 69.53c-3.47.674-7.859 2.231-12.256 5.47h-1.25l-1.735-3.908L87 69.812v-1.375l2.42-1.052v-.323l.202-.203c1.264-1.16 5.909-1.928 7.738-2.306 1.344-.27 2.689-.432 4.034-.485l-.242-.203c-1.291-1.268-1.937-2.751-1.937-4.45 0-.486.067-.998.202-1.538 1.103-3.075 1.654-6.339 1.654-9.791 0-.971-.054-1.943-.161-2.914a37.563 37.563 0 0 0-1.675-7.404 84.426 84.426 0 0 0-2.723-7l-.403-.89h1.856l2.218.971 3.228-2.59h.282l.242-.97.444-.081c1.882-.27 3.67-.774 5.364-1.512l.506-.228c1.842-.863 3.839-1.403 5.99-1.618v-.526l3.026-.324c1.667.324 3.348.674 5.042 1.052a16.088 16.088 0 0 1 4.76 1.942l.323.202v.971l-.605 1.457c-.43.27-.827.459-1.19.566a7.73 7.73 0 0 1-.735.18l-.374.063c-.511.054-.968.35-1.372.89zm-8.665 32.931V62.5l.122-.278-.163-.159.245-1.706-.98-1.786h2.082l.245.12v-5.635L117.592 50h-.082c-1.796 1.005-3.64 1.72-5.53 2.143a29.95 29.95 0 0 1-5.735.714L106 62.262l.245 1.667L106 65c1.741-.344 3.422-.708 5.04-1.091 1.62-.384 3.423-.602 5.409-.655zM106.157 49l10.256-2.692.587.2-.861-6.508-2.192 2.009c-2.74 1.205-5.324 1.848-7.751 1.928l-.196.643.313 1.608-.313 2.29.157.522zm8.094-19.533V29a49.05 49.05 0 0 1-1.982 1.128c-.96.52-1.996.895-3.11 1.129l-.272.039a8.598 8.598 0 0 0-.379-.263l-.199-.121a1.987 1.987 0 0 0-.083-.044c-.285-.13-.57-.22-.855-.273a10.523 10.523 0 0 0-1.477-.116 2.309 2.309 0 0 0-.66.895c-.156.363-.234.668-.234.914s.013.447.039.603l.622 1.167-.506 1.751c.286.39.584.753.894 1.09.441.415.661.92.661 1.517 0 .182-.026.376-.077.584 2.746-1.167 5.338-1.88 7.773-2.14l1.555.194.039-.038-.894-5.292h-.505l-.506-2.257h.156zM81 14h2.313c1.942.312 3.81.78 5.604 1.405 1.795.624 3.557 1.509 5.285 2.654L95 20.673l-1.157.351c-.452.65-1.05.976-1.795.976a3.32 3.32 0 0 1-.23-.009l-.587-.05a6.65 6.65 0 0 0-.499-.019 11.816 11.816 0 0 0-.656-.035l-.46-.004c-1.729-.755-3.191-1.795-4.388-3.122L81 14z" fill="#1E8891" fill-rule="nonzero"/>
        <g transform="translate(137 12.947)">
            <mask id="lwem262rjb" fill="#fff">
                <use xlink:href="#c214luvpua"/>
            </mask>
            <path d="M47.676 2.753a1.496 1.496 0 0 0-.13-.7c-.232-1.05-1.553-1.833-2.481-.815-1.165 1.278-2.45 2-4.096 2.459-.328.09-.63.144-.913.17a3.952 3.952 0 0 0-1.152-.167c-.06 0-.116.006-.174.008-.942-.363-1.542-1.282-1.932-2.622-.41-1.408-2.51-1.487-2.88 0-.545 2.192-1.113 4.282-3.752 4.136a1.654 1.654 0 0 0-.259-.141c-.747-.317-1.3-1.165-1.829-1.758-.744-.833-2.245-.414-2.496.669-1.237 5.37-2.638 10.794-7.363 14.134-4.464 3.155-11.902 1.882-16.073-1.268C.6 15.688-.887 18.323.64 19.477c1.855 1.4 4.134 2.392 6.542 2.94.013.067.023.132.05.196.558 1.39.974 2.571 2.253 3.442.891.608 2.018 1.044 3.105 1.283.615.998 1.51 1.606 2.637 1.893.594.15 1.209.175 1.815.243-.083 2.779-.097 5.56-.097 8.34v4.837c0 1.731.304 3.545-.071 5.247l-.003.02c-.013.066-.02.133-.024.198-.04.435.093.802.326 1.081.347.478.927.771 1.567.56.219-.043.421-.14.591-.294 1.992-1.129 4.172-1.795 6.27-2.693 2.257-.964 4.385-2.198 6.489-3.463 3.664-2.202 7.797-3.713 11.043-6.569.573-.506.589-1.14.31-1.648-.003-8.287-.074-16.573-.413-24.853 2.359-1.81 4.506-4.504 4.646-7.484" fill="#FEFEFE" mask="url(#lwem262rjb)"/>
        </g>
        <g transform="translate(137 12.947)">
            <mask id="rmfbdl4wwd" fill="#fff">
                <use xlink:href="#mxs1cl2o6c"/>
            </mask>
            <path d="M42.895 8.84c-.334.094-.477-.432-.142-.523 1.439-.392 2.937-1.781 3.482-3.19.126-.324.644-.182.517.146-.616 1.59-2.22 3.123-3.857 3.568m-7.126-2.837c-1.953 2.429-5.11 2.99-7.86 1.78-.894 3.239-2.264 6.152-3.994 9.046-.704 1.178-1.476 2.174-2.637 2.917-1.285.82-2.76 1.156-4.042 1.955-.295.184-.565-.287-.27-.47 1.176-.735 2.552-1.004 3.725-1.753 1.356-.867 2.211-1.917 2.995-3.33 1.591-2.875 2.946-5.621 3.794-8.81.047-.18.24-.24.392-.163 2.667 1.32 5.747.75 7.608-1.663a.214.214 0 0 1 .168-.093.213.213 0 0 1 .24.018c3.021 2.155 7.731 1.152 9.877-1.755.204-.278.67-.007.462.275-2.286 3.099-7.166 4.255-10.458 2.046M15.586 21.888c-1.88.406-3.64.348-5.547.388-.345.008-.344-.536 0-.544 1.853-.04 3.572.028 5.403-.37.338-.072.482.453.144.526m-5.297-1.471c3.845.08 7.878-.302 10.565-3.514 2.36-2.82 4.152-6.453 4.616-10.134.073-.582.982-.589.907 0-.479 3.8-2.258 7.978-4.881 10.785-3.066 3.284-6.958 3.873-11.207 3.785-.584-.013-.586-.935 0-.922M29.065 5.305c.501.564 1.552.586 2.242.397.785-.214 1.23-.75 1.69-1.398.339-.477 1.126-.019.783.464-.66.929-1.334 1.66-2.484 1.87-.97.175-2.177.102-2.873-.681-.391-.439.25-1.093.642-.652m7.422-1.684c2.345 2.535 6.67 1.158 8.649-1.263.374-.459 1.012.198.642.652-2.31 2.824-7.242 4.17-9.932 1.263-.4-.432.24-1.086.641-.652M8.547 21.234c-1.361-.072-2.487-.825-3.72-1.334-1.244-.51-2.457-1.053-3.475-1.96-.441-.394.204-1.043.641-.652.993.885 2.226 1.382 3.439 1.87 1.037.42 1.967 1.093 3.115 1.154.582.03.585.951 0 .922m-1.907.559c-1.917-.374-3.5-1.515-5.195-2.429-.305-.164-.035-.634.27-.469 1.655.893 3.195 2.008 5.068 2.374.338.065.195.59-.143.524M45.153 8.91a.924.924 0 0 0-.322-.295c1.555-1.642 2.742-3.673 2.845-5.863a1.493 1.493 0 0 0-.13-.699c-.232-1.05-1.553-1.833-2.48-.815-1.166 1.278-2.451 2-4.097 2.458-.328.092-.63.145-.913.17a3.948 3.948 0 0 0-1.152-.166c-.06 0-.116.006-.174.008-.943-.363-1.542-1.282-1.932-2.622-.41-1.409-2.51-1.487-2.88 0-.545 2.192-1.113 4.282-3.752 4.136a1.588 1.588 0 0 0-.259-.141c-.747-.318-1.3-1.166-1.829-1.758-.744-.834-2.245-.414-2.496.669-1.237 5.37-2.638 10.793-7.363 14.134-4.465 3.156-11.902 1.882-16.073-1.268C.6 15.689-.887 18.323.64 19.476c1.856 1.402 4.134 2.393 6.543 2.941.012.067.022.132.049.197.558 1.39.974 2.57 2.253 3.441.891.608 2.018 1.044 3.105 1.283.614.998 1.511 1.607 2.637 1.893.595.15 1.21.175 1.815.243-.083 2.779-.097 5.56-.097 8.34v4.838c0 1.73.304 3.544-.071 5.246l-.003.02c-.013.067-.02.133-.024.198-.04.435.094.802.326 1.081.347.478.928.771 1.568.56.218-.043.42-.14.59-.294 1.992-1.129 4.172-1.795 6.27-2.692 2.257-.965 4.385-2.198 6.489-3.464 3.664-2.201 7.797-3.713 11.043-6.568.573-.506.588-1.14.311-1.65a753.332 753.332 0 0 0-.163-16.184c.384-.125.539-.543.461-.904a.645.645 0 0 0 .143-.329c.4-2.709 1.505-5.413 1.562-8.16a.671.671 0 0 0-.294-.602" fill="#1E8891" mask="url(#rmfbdl4wwd)"/>
        </g>
        <path d="M202.954 34.079c-.103-.588-.452-1.139-1.12-1.416-3.2-1.323-6.311-2.903-9.482-4.303-2.737-1.211-5.602-3.032-8.58-3.463a1.794 1.794 0 0 0-.504 0c-.026.002-.052-.005-.079 0-.626.083-1.254.101-1.883.1a1.684 1.684 0 0 0-.838-.228c-2.509-.026-4.963-.376-7.23-1.525a1.813 1.813 0 0 0-.456-.158c-.416-.611-1.024-.817-1.603-.756-.353-.036-.72.03-1.05.218-.011.007-.022.012-.034.018-.345.127-.693.24-1.018.424-.45.259-.728.717-.815 1.21-.167.201-.296.456-.351.795-1.09 6.579-5.291 11.906-11.019 14.983-.891.48-1.02 1.363-.717 2.091-.725 1.074-1.068 2.7-1.17 3.797-.369 3.974.212 8.038-.014 12.035-.088 1.55-.079 3.066.328 4.572.007.025.017.045.024.07-.002.123.005.243.01.363a.78.78 0 0 1 .34.15c4.243 3.137 8.385 6.346 12.972 8.974 2.137 1.222 4.595 1.902 6.657 3.237 1.654 1.07 3.248 2.252 4.92 3.293.314-.227.554-.552.627-.946.715-3.777-.062-7.779-.062-11.608 0-2.484.241-5.072.226-7.61.33.173.732.23 1.193.099 8.17-2.349 9.36-10.983 13.098-17.487.005-.007.006-.015.011-.023.064-.016.124-.025.19-.047 2.678-.972 5.635-2.08 7.569-4.308.747-.86.488-1.927-.14-2.551" fill="#E37A3B"/>
        <path d="M193.255 38.68c-7.7-4.364-14.99-9.404-22.389-14.263-.803-.527-1.542.773-.745 1.295 7.4 4.86 14.69 9.9 22.388 14.266.833.472 1.576-.825.746-1.298M169.251 29.206c-.14 1.436-.894 2.52-1.829 3.598-.419.485.298 1.185.723.697 1.124-1.296 1.96-2.573 2.128-4.295.061-.633-.961-.628-1.022 0M183.655 39.566c-.14 1.436-.895 2.52-1.83 3.598-.42.483.3 1.186.722.697 1.124-1.297 1.96-2.574 2.128-4.295.062-.633-.96-.628-1.02 0M179.185 36.113c-.14 1.436-.895 2.519-1.83 3.597-.42.485.299 1.187.722.698 1.126-1.298 1.96-2.574 2.128-4.295.062-.634-.959-.628-1.02 0M174.218 32.66c-.14 1.436-.896 2.519-1.83 3.596-.418.486.3 1.186.724.699 1.123-1.297 1.96-2.574 2.127-4.296.06-.632-.96-.628-1.021 0" fill="#FEFEFE"/>
        <path d="M201.58 38.201c-.028 0-.047.013-.073.015a.696.696 0 0 0-.462-.17l-.074-.001a.78.78 0 0 0-.304-.06.867.867 0 0 0-.173.018 2.544 2.544 0 0 1-.829-.257.758.758 0 0 0-.18-.064.768.768 0 0 0-.327-.069.69.69 0 0 0-.604.314.744.744 0 0 0-.306.152c-1.709 1.418-3.945 2.32-6.154 1.47-.395-.302-1.05-.259-1.167.354-.211 1.102-.457 2.201-1.14 3.122-.284.383-.108.756.21.943a.692.692 0 0 0 .471.394c2.438.69 4.917 1.057 7.324-.066 2.14-1 3.97-2.761 4.197-5.167a.785.785 0 0 0-.004-.16c.176-.293.046-.768-.405-.768" fill="#E39E25"/>
        <path d="M186.033 26.784c-1 .32-1.982.303-3.01.278-1.058-.024-2.114.086-3.168-.081-.642-.103-.919 1.027-.27 1.129 1.148.183 2.283.11 3.438.125 1.122.013 2.192.03 3.28-.32.634-.202.364-1.334-.27-1.13M191.889 29.779c-2.077 1.05-4.456.951-6.74.984-.628.008-.628.94 0 .93 2.472-.033 4.988.026 7.23-1.11.557-.282.064-1.086-.49-.804M162.909 47.33c.21-.339.537-.597.898-.748.418-.175 1.29-.366 1.686-.01.063-.008.129.012.185.083.95 1.231 2.985 1.92 4.367 2.378 1.602.53 3.988 1.302 5.693.686-.215-.16-.429-.32-.649-.472-.637-.443-1.334-.73-1.899-1.27v-3.144a.514.514 0 0 0-.05-.227.48.48 0 0 0-.227-.472c-1.677-1.061-3.432-2.002-5.159-2.993-.769-.362-1.535-.724-2.308-1.07-1.364-.61-2.767-1.225-4.067-1.964a1.9 1.9 0 0 0-.173.029c-.014.374-.04.746-.05 1.12-.008.381.015.756-.085 1.126-.046.168-.198.206-.322.163-.05.086-.125.112-.237.043a.227.227 0 0 1-.15.005c-.81-.257-1.534-.676-2.281-1.06a.715.715 0 0 0-.222.058c0 2.047 0 4.082.096 6.121.047.023.092.05.145.069.119.113.263.211.44.278 1.46.553 2.8 1.626 4.217 2.384-.01-.365-.043-.801.152-1.114" fill="#FEFEFE"/>
        <path d="M210.998 32.966a1.47 1.47 0 0 0-.13-.7c-.231-1.052-1.553-1.832-2.48-.814-1.164 1.278-2.45 1.999-4.097 2.459-.327.09-.63.145-.913.17a3.93 3.93 0 0 0-1.15-.168c-.061 0-.116.008-.175.01-.94-.364-1.543-1.283-1.931-2.624-.411-1.408-2.51-1.487-2.88 0-.544 2.19-1.114 4.282-3.753 4.136a1.758 1.758 0 0 0-.259-.141c-.746-.316-1.3-1.165-1.829-1.757-.743-.834-2.245-.416-2.495.67-1.239 5.368-2.64 10.793-7.365 14.133-4.462 3.153-11.902 1.88-16.071-1.268-1.547-1.17-3.034 1.463-1.508 2.617 1.857 1.403 4.136 2.394 6.543 2.942.013.066.024.132.05.195.558 1.39.974 2.571 2.253 3.442.892.608 2.018 1.044 3.104 1.283.616.999 1.513 1.608 2.638 1.892.595.15 1.21.177 1.815.244-.082 2.78-.096 5.559-.097 8.34v4.837c0 1.73.303 3.544-.072 5.247l-.001.02c-.015.066-.02.132-.025.199-.04.433.092.8.326 1.08.347.478.928.771 1.568.56.217-.044.42-.14.591-.295 1.992-1.127 4.17-1.795 6.269-2.692 2.257-.964 4.384-2.2 6.489-3.463 3.665-2.202 7.797-3.713 11.042-6.569.575-.505.589-1.14.314-1.65-.006-8.285-.078-16.57-.415-24.85 2.357-1.812 4.505-4.504 4.644-7.485" fill="#FEFEFE"/>
        <path d="M206.218 39.056c-.334.09-.476-.434-.143-.524 1.44-.394 2.938-1.783 3.483-3.19.125-.324.644-.183.517.144-.616 1.59-2.22 3.124-3.857 3.57m-25.66 12.859c-.294.184-.565-.287-.27-.47 1.178-.734 2.554-1.003 3.725-1.752 1.356-.868 2.212-1.916 2.996-3.331 1.592-2.874 2.947-5.623 3.793-8.81.049-.18.24-.238.395-.163 2.664 1.32 5.744.752 7.605-1.663.051-.065.11-.091.17-.091a.211.211 0 0 1 .239.017c3.022 2.156 7.73 1.153 9.877-1.755.205-.277.67-.006.462.274-2.287 3.099-7.167 4.255-10.46 2.046-1.952 2.43-5.108 2.993-7.857 1.78-.896 3.239-2.265 6.153-3.994 9.048-.705 1.176-1.477 2.174-2.638 2.916-1.285.82-2.762 1.156-4.042 1.954m-1.65.185c-1.88.408-3.64.349-5.546.39-.346.008-.346-.538 0-.544 1.853-.04 3.57.028 5.403-.369.337-.074.48.451.143.523m-5.297-1.47c3.846.08 7.877-.302 10.566-3.513 2.359-2.82 4.151-6.452 4.615-10.135.072-.58.981-.588.908 0-.48 3.8-2.26 7.978-4.882 10.787-3.067 3.283-6.957 3.872-11.207 3.782-.585-.01-.586-.933 0-.92m18.776-15.111c.5.564 1.552.586 2.241.396.786-.216 1.229-.75 1.691-1.399.338-.476 1.127-.017.784.466-.66.927-1.334 1.657-2.485 1.867-.97.178-2.177.103-2.873-.679-.391-.44.248-1.094.642-.651m7.424-1.685c2.345 2.534 6.667 1.157 8.647-1.264.375-.457 1.013.198.641.652-2.308 2.826-7.241 4.17-9.93 1.264-.4-.433.24-1.086.642-.652M171.87 51.446c-1.361-.07-2.488-.823-3.72-1.331-1.244-.513-2.458-1.054-3.476-1.961-.44-.395.204-1.043.643-.653.993.884 2.226 1.383 3.438 1.872 1.036.417 1.967 1.092 3.115 1.151.582.032.586.952 0 .922m-1.907.56c-1.918-.374-3.5-1.513-5.196-2.428-.306-.164-.034-.634.271-.47 1.654.892 3.194 2.008 5.068 2.374.34.066.194.59-.143.525m38.613-13.644c1.344-1.556 2.33-3.411 2.422-5.397a1.479 1.479 0 0 0-.13-.7c-.232-1.051-1.553-1.833-2.48-.814-1.165 1.278-2.45 1.999-4.097 2.459-.327.09-.63.145-.914.17a3.948 3.948 0 0 0-1.15-.168c-.06 0-.115.008-.175.01-.94-.364-1.542-1.283-1.93-2.624-.411-1.408-2.51-1.487-2.88 0-.544 2.19-1.114 4.282-3.752 4.137a1.827 1.827 0 0 0-.26-.142c-.746-.316-1.3-1.165-1.83-1.757-.742-.834-2.244-.416-2.494.67-1.239 5.369-2.64 10.793-7.365 14.133-4.463 3.153-11.902 1.881-16.072-1.268-1.546-1.17-3.033 1.464-1.507 2.617 1.857 1.403 4.135 2.394 6.543 2.943.014.065.023.132.05.194.558 1.39.974 2.57 2.252 3.442.893.608 2.02 1.044 3.105 1.283.616.999 1.513 1.608 2.638 1.892.595.15 1.21.177 1.815.245-.083 2.778-.096 5.558-.098 8.34v4.836c0 1.73.304 3.544-.071 5.248l-.001.018c-.015.067-.02.133-.025.2-.04.434.092.8.326 1.08.347.478.928.771 1.568.56.217-.044.42-.139.591-.295 1.991-1.127 4.17-1.795 6.269-2.692 2.257-.964 4.384-2.2 6.49-3.462 3.663-2.203 7.796-3.714 11.041-6.57.574-.505.589-1.14.314-1.65-.004-6.666-.06-13.332-.254-19.996a.747.747 0 0 0 .463-.318c.556-.812.649-1.778.827-2.726.204-1.084.938-1.962 1.175-3.045a.744.744 0 0 0-.404-.853" fill="#1E8891"/>
        <path d="M174.136 47.502c.014-.832.152-1.67.077-2.501-.049-.543-.1-1.074.035-1.601-1.982-1.063-3.85-2.339-5.919-3.25-2.013-.885-3.92-2.25-6.034-2.873a.221.221 0 0 1-.158-.157c-.266.178-.513.382-.716.544-.198.16-.017.415.19.412.022.009.045.013.07.016.021.071.062.138.145.173 3.86 1.658 7.588 3.589 11.267 5.629a.24.24 0 0 0 .123.029c.001 1.27-.08 2.539-.081 3.81 0 .18.15.257.284.237a.219.219 0 0 0 .155-.03c.19-.118.387-.222.583-.328a.244.244 0 0 1-.021-.11" fill="#1E8891"/>
        <path d="M176.732 49.102c-.288-.202-.577-.406-.869-.598-.427-.285-.832-.692-1.291-.905a.198.198 0 0 1-.082-.078.201.201 0 0 1-.114-.033l-.009-.001c-.007-.004-.017-.004-.025-.007-.157.076-.315.153-.47.236-.207.11-.119.396.055.464a.22.22 0 0 0 .103.078c.632.236 1.138.742 1.667 1.195.365-.019.739-.1 1.035-.35" fill="#1E8891"/>
        <path d="M166.266 69.06v-7.958c-.108-.504-.327-.933-.77-1.19-1.044-.602-2.174-1.001-3.237-1.563-.007-.004-.01-.01-.014-.012-.162-.023-.339.067-.339.287-.006 2.564-.069 5.126-.074 7.689 0 .078.026.136.062.184a.291.291 0 0 0 .014.243c-.005.031-.01.062-.004.097.053.319.346.525.585.692.304.21.58.488.906.659.015.006.027.004.04.009a.271.271 0 0 0 .14.063c.021.031.05.06.094.083.391.192.78.436 1.136.69.308.221.563.494.935.598h.01c.043.028.092.049.156.049.01 0 .018-.006.028-.006.012 0 .021.006.034.006.182 0 .274-.138.284-.284a.353.353 0 0 0 .014-.337" fill="#FEFEFE"/>
        <path d="M200.348 37.906a.255.255 0 0 0-.107-.024c-.63-.008-1.08-.424-1.6-.726a.227.227 0 0 0-.272.02.264.264 0 0 0-.116.085c-.752 1.01-1.83 1.54-3.007 1.855-.923.247-2.542.344-3.48.028a.243.243 0 0 0-.113-.009.22.22 0 0 0-.14-.05c-.176 0-.251.153-.235.29a.255.255 0 0 0-.03.124c.016.563-.201 1.125-.51 1.585-.01.018-.016.033-.022.048-.138.13-.094.414.13.44a.234.234 0 0 0 .088.043c2.048.58 3.645.584 5.706.015 1.7-.47 3.031-1.852 3.894-3.35.104-.18-.032-.347-.186-.374" fill="#E37A3B"/>
        <path d="M204.667 58.373c-1.787 1.116-3.795 1.73-5.717 2.551-1.813.776-3.477 1.904-5.2 2.857-1.791.99-3.64 1.837-5.42 2.85-1.765 1.002-3.727 1.601-5.514 2.575-.285.156-.03.597.254.441 1.79-.973 3.73-1.597 5.513-2.575 1.794-.981 3.622-1.876 5.42-2.85 1.955-1.058 3.802-2.286 5.861-3.131 1.72-.705 3.468-1.283 5.057-2.277.276-.172.024-.614-.254-.441M179.042 69.668c-1.776-.59-3.323-1.647-5.035-2.377-1.9-.811-3.475-2.142-5.337-3.012-.29-.135-.544.304-.252.44 1.637.765 3.008 2.035 4.673 2.732 1.975.826 3.783 2.033 5.818 2.709.306.1.437-.392.133-.492M160.179 60.253c-1.547-.693-2.972-1.677-4.512-2.391-.29-.135-.416.395-.13.527 1.54.713 2.964 1.698 4.513 2.39.293.13.417-.398.129-.526" fill="#FEFEFE"/>
        <path d="M197.223 28.322c-1.582-.847-3.336-1.338-4.87-2.27-1.283-.777-2.362-1.741-3.801-2.213-.898-.294-1.278 1.167-.386 1.458 1.451.475 2.603 1.544 3.9 2.333 1.38.835 2.998 1.237 4.422 1.998.834.447 1.57-.857.735-1.306M202.675 31.14c-.52-.362-1.008-.785-1.632-.908-.411-.083-.826.114-.945.576-.102.404.125.933.537 1.015.473.094.837.443 1.265.741.352.246.846.078 1.05-.295a.874.874 0 0 0-.275-1.13" fill="#1E8891"/>
    </g>
</svg>
